<svg xmlns="http://www.w3.org/2000/svg" xmlns:xlink="http://www.w3.org/1999/xlink" width="13.691" height="993" viewBox="0 0 13.691 993"><defs><clipPath id="clip-path"><rect width="13.691" height="993" fill="none"></rect></clipPath></defs><g id="Repeat_Grid_15" data-name="Repeat Grid 15" clip-path="url(#clip-path)" style="isolation: isolate"><g transform="translate(-653.154 -486.155)"><rect id="Rectangle_3035" data-name="Rectangle 3035" width="9.681" height="9.681" transform="translate(653.154 493) rotate(-45)" fill="#dcdedf"></rect></g><g transform="translate(-653.154 -472.155)"><rect id="Rectangle_3035-2" data-name="Rectangle 3035" width="9.681" height="9.681" transform="translate(653.154 493) rotate(-45)" fill="#dcdedf"></rect></g><g transform="translate(-653.154 -458.155)"><rect id="Rectangle_3035-3" data-name="Rectangle 3035" width="9.681" height="9.681" transform="translate(653.154 493) rotate(-45)" fill="#dcdedf"></rect></g><g transform="translate(-653.154 -444.155)"><rect id="Rectangle_3035-4" data-name="Rectangle 3035" width="9.681" height="9.681" transform="translate(653.154 493) rotate(-45)" fill="#dcdedf"></rect></g><g transform="translate(-653.154 -430.155)"><rect id="Rectangle_3035-5" data-name="Rectangle 3035" width="9.681" height="9.681" transform="translate(653.154 493) rotate(-45)" fill="#dcdedf"></rect></g><g transform="translate(-653.154 -416.155)"><rect id="Rectangle_3035-6" data-name="Rectangle 3035" width="9.681" height="9.681" transform="translate(653.154 493) rotate(-45)" fill="#dcdedf"></rect></g><g transform="translate(-653.154 -402.155)"><rect id="Rectangle_3035-7" data-name="Rectangle 3035" width="9.681" height="9.681" transform="translate(653.154 493) rotate(-45)" fill="#dcdedf"></rect></g><g transform="translate(-653.154 -388.155)"><rect id="Rectangle_3035-8" data-name="Rectangle 3035" width="9.681" height="9.681" transform="translate(653.154 493) rotate(-45)" fill="#dcdedf"></rect></g><g transform="translate(-653.154 -374.155)"><rect id="Rectangle_3035-9" data-name="Rectangle 3035" width="9.681" height="9.681" transform="translate(653.154 493) rotate(-45)" fill="#dcdedf"></rect></g><g transform="translate(-653.154 -360.155)"><rect id="Rectangle_3035-10" data-name="Rectangle 3035" width="9.681" height="9.681" transform="translate(653.154 493) rotate(-45)" fill="#dcdedf"></rect></g><g transform="translate(-653.154 -346.155)"><rect id="Rectangle_3035-11" data-name="Rectangle 3035" width="9.681" height="9.681" transform="translate(653.154 493) rotate(-45)" fill="#dcdedf"></rect></g><g transform="translate(-653.154 -332.155)"><rect id="Rectangle_3035-12" data-name="Rectangle 3035" width="9.681" height="9.681" transform="translate(653.154 493) rotate(-45)" fill="#dcdedf"></rect></g><g transform="translate(-653.154 -318.155)"><rect id="Rectangle_3035-13" data-name="Rectangle 3035" width="9.681" height="9.681" transform="translate(653.154 493) rotate(-45)" fill="#dcdedf"></rect></g><g transform="translate(-653.154 -304.155)"><rect id="Rectangle_3035-14" data-name="Rectangle 3035" width="9.681" height="9.681" transform="translate(653.154 493) rotate(-45)" fill="#dcdedf"></rect></g><g transform="translate(-653.154 -290.155)"><rect id="Rectangle_3035-15" data-name="Rectangle 3035" width="9.681" height="9.681" transform="translate(653.154 493) rotate(-45)" fill="#dcdedf"></rect></g><g transform="translate(-653.154 -276.155)"><rect id="Rectangle_3035-16" data-name="Rectangle 3035" width="9.681" height="9.681" transform="translate(653.154 493) rotate(-45)" fill="#dcdedf"></rect></g><g transform="translate(-653.154 -262.155)"><rect id="Rectangle_3035-17" data-name="Rectangle 3035" width="9.681" height="9.681" transform="translate(653.154 493) rotate(-45)" fill="#dcdedf"></rect></g><g transform="translate(-653.154 -248.155)"><rect id="Rectangle_3035-18" data-name="Rectangle 3035" width="9.681" height="9.681" transform="translate(653.154 493) rotate(-45)" fill="#dcdedf"></rect></g><g transform="translate(-653.154 -234.155)"><rect id="Rectangle_3035-19" data-name="Rectangle 3035" width="9.681" height="9.681" transform="translate(653.154 493) rotate(-45)" fill="#dcdedf"></rect></g><g transform="translate(-653.154 -220.155)"><rect id="Rectangle_3035-20" data-name="Rectangle 3035" width="9.681" height="9.681" transform="translate(653.154 493) rotate(-45)" fill="#dcdedf"></rect></g><g transform="translate(-653.154 -206.155)"><rect id="Rectangle_3035-21" data-name="Rectangle 3035" width="9.681" height="9.681" transform="translate(653.154 493) rotate(-45)" fill="#dcdedf"></rect></g><g transform="translate(-653.154 -192.155)"><rect id="Rectangle_3035-22" data-name="Rectangle 3035" width="9.681" height="9.681" transform="translate(653.154 493) rotate(-45)" fill="#dcdedf"></rect></g><g transform="translate(-653.154 -178.155)"><rect id="Rectangle_3035-23" data-name="Rectangle 3035" width="9.681" height="9.681" transform="translate(653.154 493) rotate(-45)" fill="#dcdedf"></rect></g><g transform="translate(-653.154 -164.155)"><rect id="Rectangle_3035-24" data-name="Rectangle 3035" width="9.681" height="9.681" transform="translate(653.154 493) rotate(-45)" fill="#dcdedf"></rect></g><g transform="translate(-653.154 -150.155)"><rect id="Rectangle_3035-25" data-name="Rectangle 3035" width="9.681" height="9.681" transform="translate(653.154 493) rotate(-45)" fill="#dcdedf"></rect></g><g transform="translate(-653.154 -136.155)"><rect id="Rectangle_3035-26" data-name="Rectangle 3035" width="9.681" height="9.681" transform="translate(653.154 493) rotate(-45)" fill="#dcdedf"></rect></g><g transform="translate(-653.154 -122.155)"><rect id="Rectangle_3035-27" data-name="Rectangle 3035" width="9.681" height="9.681" transform="translate(653.154 493) rotate(-45)" fill="#dcdedf"></rect></g><g transform="translate(-653.154 -108.155)"><rect id="Rectangle_3035-28" data-name="Rectangle 3035" width="9.681" height="9.681" transform="translate(653.154 493) rotate(-45)" fill="#dcdedf"></rect></g><g transform="translate(-653.154 -94.155)"><rect id="Rectangle_3035-29" data-name="Rectangle 3035" width="9.681" height="9.681" transform="translate(653.154 493) rotate(-45)" fill="#dcdedf"></rect></g><g transform="translate(-653.154 -80.155)"><rect id="Rectangle_3035-30" data-name="Rectangle 3035" width="9.681" height="9.681" transform="translate(653.154 493) rotate(-45)" fill="#dcdedf"></rect></g><g transform="translate(-653.154 -66.155)"><rect id="Rectangle_3035-31" data-name="Rectangle 3035" width="9.681" height="9.681" transform="translate(653.154 493) rotate(-45)" fill="#dcdedf"></rect></g><g transform="translate(-653.154 -52.155)"><rect id="Rectangle_3035-32" data-name="Rectangle 3035" width="9.681" height="9.681" transform="translate(653.154 493) rotate(-45)" fill="#dcdedf"></rect></g><g transform="translate(-653.154 -38.155)"><rect id="Rectangle_3035-33" data-name="Rectangle 3035" width="9.681" height="9.681" transform="translate(653.154 493) rotate(-45)" fill="#dcdedf"></rect></g><g transform="translate(-653.154 -24.155)"><rect id="Rectangle_3035-34" data-name="Rectangle 3035" width="9.681" height="9.681" transform="translate(653.154 493) rotate(-45)" fill="#dcdedf"></rect></g><g transform="translate(-653.154 -10.155)"><rect id="Rectangle_3035-35" data-name="Rectangle 3035" width="9.681" height="9.681" transform="translate(653.154 493) rotate(-45)" fill="#dcdedf"></rect></g><g transform="translate(-653.154 3.845)"><rect id="Rectangle_3035-36" data-name="Rectangle 3035" width="9.681" height="9.681" transform="translate(653.154 493) rotate(-45)" fill="#dcdedf"></rect></g><g transform="translate(-653.154 17.845)"><rect id="Rectangle_3035-37" data-name="Rectangle 3035" width="9.681" height="9.681" transform="translate(653.154 493) rotate(-45)" fill="#dcdedf"></rect></g><g transform="translate(-653.154 31.845)"><rect id="Rectangle_3035-38" data-name="Rectangle 3035" width="9.681" height="9.681" transform="translate(653.154 493) rotate(-45)" fill="#dcdedf"></rect></g><g transform="translate(-653.154 45.845)"><rect id="Rectangle_3035-39" data-name="Rectangle 3035" width="9.681" height="9.681" transform="translate(653.154 493) rotate(-45)" fill="#dcdedf"></rect></g><g transform="translate(-653.154 59.845)"><rect id="Rectangle_3035-40" data-name="Rectangle 3035" width="9.681" height="9.681" transform="translate(653.154 493) rotate(-45)" fill="#dcdedf"></rect></g><g transform="translate(-653.154 73.845)"><rect id="Rectangle_3035-41" data-name="Rectangle 3035" width="9.681" height="9.681" transform="translate(653.154 493) rotate(-45)" fill="#dcdedf"></rect></g><g transform="translate(-653.154 87.845)"><rect id="Rectangle_3035-42" data-name="Rectangle 3035" width="9.681" height="9.681" transform="translate(653.154 493) rotate(-45)" fill="#dcdedf"></rect></g><g transform="translate(-653.154 101.845)"><rect id="Rectangle_3035-43" data-name="Rectangle 3035" width="9.681" height="9.681" transform="translate(653.154 493) rotate(-45)" fill="#dcdedf"></rect></g><g transform="translate(-653.154 115.845)"><rect id="Rectangle_3035-44" data-name="Rectangle 3035" width="9.681" height="9.681" transform="translate(653.154 493) rotate(-45)" fill="#dcdedf"></rect></g><g transform="translate(-653.154 129.845)"><rect id="Rectangle_3035-45" data-name="Rectangle 3035" width="9.681" height="9.681" transform="translate(653.154 493) rotate(-45)" fill="#dcdedf"></rect></g><g transform="translate(-653.154 143.845)"><rect id="Rectangle_3035-46" data-name="Rectangle 3035" width="9.681" height="9.681" transform="translate(653.154 493) rotate(-45)" fill="#dcdedf"></rect></g><g transform="translate(-653.154 157.845)"><rect id="Rectangle_3035-47" data-name="Rectangle 3035" width="9.681" height="9.681" transform="translate(653.154 493) rotate(-45)" fill="#dcdedf"></rect></g><g transform="translate(-653.154 171.845)"><rect id="Rectangle_3035-48" data-name="Rectangle 3035" width="9.681" height="9.681" transform="translate(653.154 493) rotate(-45)" fill="#dcdedf"></rect></g><g transform="translate(-653.154 185.845)"><rect id="Rectangle_3035-49" data-name="Rectangle 3035" width="9.681" height="9.681" transform="translate(653.154 493) rotate(-45)" fill="#dcdedf"></rect></g><g transform="translate(-653.154 199.845)"><rect id="Rectangle_3035-50" data-name="Rectangle 3035" width="9.681" height="9.681" transform="translate(653.154 493) rotate(-45)" fill="#dcdedf"></rect></g><g transform="translate(-653.154 213.845)"><rect id="Rectangle_3035-51" data-name="Rectangle 3035" width="9.681" height="9.681" transform="translate(653.154 493) rotate(-45)" fill="#dcdedf"></rect></g><g transform="translate(-653.154 227.845)"><rect id="Rectangle_3035-52" data-name="Rectangle 3035" width="9.681" height="9.681" transform="translate(653.154 493) rotate(-45)" fill="#dcdedf"></rect></g><g transform="translate(-653.154 241.845)"><rect id="Rectangle_3035-53" data-name="Rectangle 3035" width="9.681" height="9.681" transform="translate(653.154 493) rotate(-45)" fill="#dcdedf"></rect></g><g transform="translate(-653.154 255.845)"><rect id="Rectangle_3035-54" data-name="Rectangle 3035" width="9.681" height="9.681" transform="translate(653.154 493) rotate(-45)" fill="#dcdedf"></rect></g><g transform="translate(-653.154 269.845)"><rect id="Rectangle_3035-55" data-name="Rectangle 3035" width="9.681" height="9.681" transform="translate(653.154 493) rotate(-45)" fill="#dcdedf"></rect></g><g transform="translate(-653.154 283.845)"><rect id="Rectangle_3035-56" data-name="Rectangle 3035" width="9.681" height="9.681" transform="translate(653.154 493) rotate(-45)" fill="#dcdedf"></rect></g><g transform="translate(-653.154 297.845)"><rect id="Rectangle_3035-57" data-name="Rectangle 3035" width="9.681" height="9.681" transform="translate(653.154 493) rotate(-45)" fill="#dcdedf"></rect></g><g transform="translate(-653.154 311.845)"><rect id="Rectangle_3035-58" data-name="Rectangle 3035" width="9.681" height="9.681" transform="translate(653.154 493) rotate(-45)" fill="#dcdedf"></rect></g><g transform="translate(-653.154 325.845)"><rect id="Rectangle_3035-59" data-name="Rectangle 3035" width="9.681" height="9.681" transform="translate(653.154 493) rotate(-45)" fill="#dcdedf"></rect></g><g transform="translate(-653.154 339.845)"><rect id="Rectangle_3035-60" data-name="Rectangle 3035" width="9.681" height="9.681" transform="translate(653.154 493) rotate(-45)" fill="#dcdedf"></rect></g><g transform="translate(-653.154 353.845)"><rect id="Rectangle_3035-61" data-name="Rectangle 3035" width="9.681" height="9.681" transform="translate(653.154 493) rotate(-45)" fill="#dcdedf"></rect></g><g transform="translate(-653.154 367.845)"><rect id="Rectangle_3035-62" data-name="Rectangle 3035" width="9.681" height="9.681" transform="translate(653.154 493) rotate(-45)" fill="#dcdedf"></rect></g><g transform="translate(-653.154 381.845)"><rect id="Rectangle_3035-63" data-name="Rectangle 3035" width="9.681" height="9.681" transform="translate(653.154 493) rotate(-45)" fill="#dcdedf"></rect></g><g transform="translate(-653.154 395.845)"><rect id="Rectangle_3035-64" data-name="Rectangle 3035" width="9.681" height="9.681" transform="translate(653.154 493) rotate(-45)" fill="#dcdedf"></rect></g><g transform="translate(-653.154 409.845)"><rect id="Rectangle_3035-65" data-name="Rectangle 3035" width="9.681" height="9.681" transform="translate(653.154 493) rotate(-45)" fill="#dcdedf"></rect></g><g transform="translate(-653.154 423.845)"><rect id="Rectangle_3035-66" data-name="Rectangle 3035" width="9.681" height="9.681" transform="translate(653.154 493) rotate(-45)" fill="#dcdedf"></rect></g><g transform="translate(-653.154 437.845)"><rect id="Rectangle_3035-67" data-name="Rectangle 3035" width="9.681" height="9.681" transform="translate(653.154 493) rotate(-45)" fill="#dcdedf"></rect></g><g transform="translate(-653.154 451.845)"><rect id="Rectangle_3035-68" data-name="Rectangle 3035" width="9.681" height="9.681" transform="translate(653.154 493) rotate(-45)" fill="#dcdedf"></rect></g><g transform="translate(-653.154 465.845)"><rect id="Rectangle_3035-69" data-name="Rectangle 3035" width="9.681" height="9.681" transform="translate(653.154 493) rotate(-45)" fill="#dcdedf"></rect></g><g transform="translate(-653.154 479.845)"><rect id="Rectangle_3035-70" data-name="Rectangle 3035" width="9.681" height="9.681" transform="translate(653.154 493) rotate(-45)" fill="#dcdedf"></rect></g><g transform="translate(-653.154 493.845)"><rect id="Rectangle_3035-71" data-name="Rectangle 3035" width="9.681" height="9.681" transform="translate(653.154 493) rotate(-45)" fill="#dcdedf"></rect></g></g></svg>