<?xml version="1.0" encoding="utf-8"?>
<!-- Generator: Adobe Illustrator 27.3.1, SVG Export Plug-In . SVG Version: 6.00 Build 0)  -->
<svg version="1.1" id="Layer_1" xmlns="http://www.w3.org/2000/svg" xmlns:xlink="http://www.w3.org/1999/xlink" x="0px" y="0px"
	 viewBox="0 0 321 10.5" style="enable-background:new 0 0 321 10.5;" xml:space="preserve">
<style type="text/css">
	.st0{clip-path:url(#SVGID_00000127744788086753799710000006653541550157170602_);}
	.st1{clip-path:url(#SVGID_00000057831675737694528170000005860596604777820561_);}
	.st2{fill:#AF0061;}
</style>
<g>
	<defs>
		<rect id="SVGID_1_" width="321" height="10.5"/>
	</defs>
	<clipPath id="SVGID_00000129205589772140343890000006201347169270710718_">
		<use xlink:href="#SVGID_1_"  style="overflow:visible;"/>
	</clipPath>
	<g style="clip-path:url(#SVGID_00000129205589772140343890000006201347169270710718_);">
		<g>
			<g>
				<defs>
					<rect id="SVGID_00000124160280366053781970000016332798069545621128_" x="9242" y="20563.3" width="428" height="14"/>
				</defs>
				<clipPath id="SVGID_00000013180636692977407050000000362953800960121217_">
					<use xlink:href="#SVGID_00000124160280366053781970000016332798069545621128_"  style="overflow:visible;"/>
				</clipPath>
				
					<g id="Mask_Group_15" transform="translate(9324 20565)" style="clip-path:url(#SVGID_00000013180636692977407050000000362953800960121217_);">
					<g id="Group_4339" transform="translate(-9610 -20385.846) rotate(-90)">
						
							<rect id="Rectangle_3042" x="168.8" y="-82" transform="matrix(-0.7071 -0.7071 0.7071 -0.7071 351.059 -8.9231)" class="st2" width="9.7" height="9.7"/>
						
							<rect id="Rectangle_3043" x="168.8" y="-68" transform="matrix(-0.7071 -0.7071 0.7071 -0.7071 341.1592 14.9765)" class="st2" width="9.7" height="9.7"/>
						
							<rect id="Rectangle_3044" x="168.8" y="-54" transform="matrix(-0.7071 -0.7071 0.7071 -0.7071 331.2597 38.8763)" class="st2" width="9.7" height="9.7"/>
						
							<rect id="Rectangle_3045" x="168.8" y="-40" transform="matrix(-0.7071 -0.7071 0.7071 -0.7071 321.36 62.7759)" class="st2" width="9.7" height="9.7"/>
						
							<rect id="Rectangle_3046" x="168.8" y="-26" transform="matrix(-0.7071 -0.7071 0.7071 -0.7071 311.4603 86.6755)" class="st2" width="9.7" height="9.7"/>
						
							<rect id="Rectangle_3047" x="168.8" y="-12" transform="matrix(-0.7071 -0.7071 0.7071 -0.7071 301.5607 110.5754)" class="st2" width="9.7" height="9.7"/>
						
							<rect id="Rectangle_3048" x="168.8" y="2" transform="matrix(-0.7071 -0.7071 0.7071 -0.7071 291.661 134.475)" class="st2" width="9.7" height="9.7"/>
						
							<rect id="Rectangle_3049" x="168.8" y="16" transform="matrix(-0.7071 -0.7071 0.7071 -0.7071 281.7613 158.3746)" class="st2" width="9.7" height="9.7"/>
						
							<rect id="Rectangle_3050" x="168.8" y="30" transform="matrix(-0.7071 -0.7071 0.7071 -0.7071 271.8617 182.2743)" class="st2" width="9.7" height="9.7"/>
						
							<rect id="Rectangle_3051" x="168.8" y="44" transform="matrix(-0.7071 -0.7071 0.7071 -0.7071 261.962 206.1739)" class="st2" width="9.7" height="9.7"/>
						
							<rect id="Rectangle_3052" x="168.8" y="58" transform="matrix(-0.7071 -0.7071 0.7071 -0.7071 252.0622 230.0737)" class="st2" width="9.7" height="9.7"/>
						
							<rect id="Rectangle_3053" x="168.8" y="72" transform="matrix(-0.7071 -0.7071 0.7071 -0.7071 242.1625 253.9733)" class="st2" width="9.7" height="9.7"/>
						
							<rect id="Rectangle_3054" x="168.8" y="86" transform="matrix(-0.7071 -0.7071 0.7071 -0.7071 232.263 277.873)" class="st2" width="9.7" height="9.7"/>
						
							<rect id="Rectangle_3055" x="168.9" y="99.4" transform="matrix(-0.7071 -0.7071 0.7071 -0.7071 222.8109 300.825)" class="st2" width="9.7" height="9.7"/>
						
							<rect id="Rectangle_3056" x="168.8" y="113.4" transform="matrix(-0.7071 -0.7071 0.7071 -0.7071 212.8395 324.6963)" class="st2" width="9.7" height="9.7"/>
						
							<rect id="Rectangle_3057" x="168.8" y="127.3" transform="matrix(-0.7071 -0.7071 0.7071 -0.7071 203.0414 348.4946)" class="st2" width="9.7" height="9.7"/>
						
							<rect id="Rectangle_3058" x="168.8" y="141.3" transform="matrix(-0.7071 -0.7071 0.7071 -0.7071 193.0699 372.3661)" class="st2" width="9.7" height="9.7"/>
						
							<rect id="Rectangle_3059" x="168.8" y="155.3" transform="matrix(-0.7071 -0.7071 0.7071 -0.7071 183.2715 396.1644)" class="st2" width="9.7" height="9.7"/>
						
							<rect id="Rectangle_3060" x="168.9" y="169.2" transform="matrix(-0.7071 -0.7071 0.7071 -0.7071 173.4708 419.9651)" class="st2" width="9.7" height="9.7"/>
						
							<rect id="Rectangle_3061" x="168.8" y="183.2" transform="matrix(-0.7071 -0.7071 0.7071 -0.7071 163.4996 443.8364)" class="st2" width="9.7" height="9.7"/>
						
							<rect id="Rectangle_3062" x="168.9" y="197.1" transform="matrix(-0.7071 -0.7071 0.7071 -0.7071 153.7013 467.6345)" class="st2" width="9.7" height="9.7"/>
						
							<rect id="Rectangle_3063" x="168.8" y="211.1" transform="matrix(-0.7071 -0.7071 0.7071 -0.7071 143.7298 491.506)" class="st2" width="9.7" height="9.7"/>
						
							<rect id="Rectangle_3064" x="168.8" y="225.1" transform="matrix(-0.7071 -0.7071 0.7071 -0.7071 133.9317 515.3043)" class="st2" width="9.7" height="9.7"/>
						
							<rect id="Rectangle_3065" x="168.9" y="239" transform="matrix(-0.7071 -0.7071 0.7071 -0.7071 124.1309 539.1051)" class="st2" width="9.7" height="9.7"/>
						
							<rect id="Rectangle_3066" x="168.8" y="253" transform="matrix(-0.7071 -0.7071 0.7071 -0.7071 114.1595 562.9763)" class="st2" width="9.7" height="9.7"/>
						
							<rect id="Rectangle_3067" x="168.9" y="266.9" transform="matrix(-0.7071 -0.7071 0.7071 -0.7071 104.3612 586.7747)" class="st2" width="9.7" height="9.7"/>
						
							<rect id="Rectangle_3068" x="168.8" y="280.9" transform="matrix(-0.7071 -0.7071 0.7071 -0.7071 94.3896 610.6463)" class="st2" width="9.7" height="9.7"/>
						
							<rect id="Rectangle_3069" x="168.8" y="294.9" transform="matrix(-0.7071 -0.7071 0.7071 -0.7071 84.5916 634.4444)" class="st2" width="9.7" height="9.7"/>
						
							<rect id="Rectangle_3070" x="168.8" y="308.9" transform="matrix(-0.7071 -0.7071 0.7071 -0.7071 74.6201 658.3159)" class="st2" width="9.7" height="9.7"/>
						
							<rect id="Rectangle_3071" x="168.8" y="322.8" transform="matrix(-0.7071 -0.7071 0.7071 -0.7071 64.8218 682.1141)" class="st2" width="9.7" height="9.7"/>
						
							<rect id="Rectangle_3072" x="168.9" y="336.7" transform="matrix(-0.7071 -0.7071 0.7071 -0.7071 55.0211 705.9147)" class="st2" width="9.7" height="9.7"/>
						
							<rect id="Rectangle_3073" x="168.8" y="350.7" transform="matrix(-0.7071 -0.7071 0.7071 -0.7071 45.0498 729.7863)" class="st2" width="9.7" height="9.7"/>
						
							<rect id="Rectangle_3074" x="168.8" y="364.6" transform="matrix(-0.7071 -0.7071 0.7071 -0.7071 35.2516 753.5843)" class="st2" width="9.7" height="9.7"/>
						
							<rect id="Rectangle_3075" x="168.8" y="378.6" transform="matrix(-0.7071 -0.7071 0.7071 -0.7071 25.2801 777.4558)" class="st2" width="9.7" height="9.7"/>
						
							<rect id="Rectangle_3076" x="168.8" y="392.6" transform="matrix(-0.7071 -0.7071 0.7071 -0.7071 15.4817 801.2543)" class="st2" width="9.7" height="9.7"/>
						
							<rect id="Rectangle_3077" x="168.9" y="406.5" transform="matrix(-0.7071 -0.7071 0.7071 -0.7071 5.6812 825.0548)" class="st2" width="9.7" height="9.7"/>
						
							<rect id="Rectangle_3078" x="168.8" y="420.5" transform="matrix(-0.7071 -0.7071 0.7071 -0.7071 -4.2879 848.9239)" class="st2" width="9.7" height="9.7"/>
						
							<rect id="Rectangle_3079" x="168.9" y="434.4" transform="matrix(-0.7071 -0.7071 0.7071 -0.7071 -14.0886 872.7245)" class="st2" width="9.7" height="9.7"/>
						
							<rect id="Rectangle_3080" x="168.8" y="448.4" transform="matrix(-0.7071 -0.7071 0.7071 -0.7071 -24.0599 896.5957)" class="st2" width="9.7" height="9.7"/>
						
							<rect id="Rectangle_3081" x="168.8" y="462.4" transform="matrix(-0.7071 -0.7071 0.7071 -0.7071 -33.8581 920.3942)" class="st2" width="9.7" height="9.7"/>
						
							<rect id="Rectangle_3082" x="168.8" y="476.4" transform="matrix(-0.7071 -0.7071 0.7071 -0.7071 -43.8297 944.2657)" class="st2" width="9.7" height="9.7"/>
						
							<rect id="Rectangle_3083" x="168.8" y="490.3" transform="matrix(-0.7071 -0.7071 0.7071 -0.7071 -53.628 968.0638)" class="st2" width="9.7" height="9.7"/>
						
							<rect id="Rectangle_3084" x="168.9" y="504.2" transform="matrix(-0.7071 -0.7071 0.7071 -0.7071 -63.4287 991.8646)" class="st2" width="9.7" height="9.7"/>
						
							<rect id="Rectangle_3085" x="168.8" y="518.2" transform="matrix(-0.7071 -0.7071 0.7071 -0.7071 -73.3978 1015.7336)" class="st2" width="9.7" height="9.7"/>
						
							<rect id="Rectangle_3086" x="168.8" y="532.1" transform="matrix(-0.7071 -0.7071 0.7071 -0.7071 -83.1983 1039.5343)" class="st2" width="9.7" height="9.7"/>
						
							<rect id="Rectangle_3087" x="168.8" y="546.1" transform="matrix(-0.7071 -0.7071 0.7071 -0.7071 -93.1698 1063.4056)" class="st2" width="9.7" height="9.7"/>
						
							<rect id="Rectangle_3088" x="168.8" y="560.1" transform="matrix(-0.7071 -0.7071 0.7071 -0.7071 -102.9681 1087.204)" class="st2" width="9.7" height="9.7"/>
						
							<rect id="Rectangle_3089" x="168.9" y="574" transform="matrix(-0.7071 -0.7071 0.7071 -0.7071 -112.7686 1111.0046)" class="st2" width="9.7" height="9.7"/>
						
							<rect id="Rectangle_3090" x="168.8" y="588" transform="matrix(-0.7071 -0.7071 0.7071 -0.7071 -122.7377 1134.8737)" class="st2" width="9.7" height="9.7"/>
						
							<rect id="Rectangle_3091" x="168.8" y="601.9" transform="matrix(-0.7071 -0.7071 0.7071 -0.7071 -132.5384 1158.6742)" class="st2" width="9.7" height="9.7"/>
						
							<rect id="Rectangle_3092" x="168.8" y="615.9" transform="matrix(-0.7071 -0.7071 0.7071 -0.7071 -142.5074 1182.5433)" class="st2" width="9.7" height="9.7"/>
						
							<rect id="Rectangle_3093" x="168.8" y="629.9" transform="matrix(-0.7071 -0.7071 0.7071 -0.7071 -152.3079 1206.344)" class="st2" width="9.7" height="9.7"/>
						
							<rect id="Rectangle_3094" x="168.9" y="643.8" transform="matrix(-0.7071 -0.7071 0.7071 -0.7071 -162.1087 1230.1448)" class="st2" width="9.7" height="9.7"/>
						
							<rect id="Rectangle_3095" x="168.8" y="657.8" transform="matrix(-0.7071 -0.7071 0.7071 -0.7071 -172.0778 1254.0138)" class="st2" width="9.7" height="9.7"/>
						
							<rect id="Rectangle_3096" x="168.9" y="671.2" transform="matrix(-0.7071 -0.7071 0.7071 -0.7071 -181.532 1276.968)" class="st2" width="9.7" height="9.7"/>
						
							<rect id="Rectangle_3097" x="168.9" y="685.2" transform="matrix(-0.7071 -0.7071 0.7071 -0.7071 -191.4318 1300.8677)" class="st2" width="9.7" height="9.7"/>
						
							<rect id="Rectangle_3098" x="168.9" y="699.2" transform="matrix(-0.7071 -0.7071 0.7071 -0.7071 -201.3315 1324.7673)" class="st2" width="9.7" height="9.7"/>
						
							<rect id="Rectangle_3099" x="168.9" y="713.2" transform="matrix(-0.7071 -0.7071 0.7071 -0.7071 -211.2312 1348.667)" class="st2" width="9.7" height="9.7"/>
						
							<rect id="Rectangle_3100" x="168.9" y="727.2" transform="matrix(-0.7071 -0.7071 0.7071 -0.7071 -221.1308 1372.5668)" class="st2" width="9.7" height="9.7"/>
						
							<rect id="Rectangle_3101" x="168.9" y="741.2" transform="matrix(-0.7071 -0.7071 0.7071 -0.7071 -231.0305 1396.4664)" class="st2" width="9.7" height="9.7"/>
						
							<rect id="Rectangle_3102" x="168.9" y="755.2" transform="matrix(-0.7071 -0.7071 0.7071 -0.7071 -240.9303 1420.3662)" class="st2" width="9.7" height="9.7"/>
						
							<rect id="Rectangle_3103" x="168.9" y="769.2" transform="matrix(-0.7071 -0.7071 0.7071 -0.7071 -250.8298 1444.2659)" class="st2" width="9.7" height="9.7"/>
						
							<rect id="Rectangle_3104" x="168.9" y="783.2" transform="matrix(-0.7071 -0.7071 0.7071 -0.7071 -260.7295 1468.1654)" class="st2" width="9.7" height="9.7"/>
						
							<rect id="Rectangle_3105" x="168.9" y="797.2" transform="matrix(-0.7071 -0.7071 0.7071 -0.7071 -270.6292 1492.0651)" class="st2" width="9.7" height="9.7"/>
						
							<rect id="Rectangle_3106" x="168.9" y="811.2" transform="matrix(-0.7071 -0.7071 0.7071 -0.7071 -280.529 1515.9647)" class="st2" width="9.7" height="9.7"/>
						
							<rect id="Rectangle_3107" x="168.9" y="825.2" transform="matrix(-0.7071 -0.7071 0.7071 -0.7071 -290.4285 1539.8645)" class="st2" width="9.7" height="9.7"/>
						<path id="Path_2214" class="st2" d="M166.9,844.1l6.8-6.8l6.8,6.8H166.9z"/>
					</g>
				</g>
			</g>
		</g>
		<polygon class="st2" points="-210.9,0.3 -216,5.4 -210.9,10.5 -205.7,5.4 		"/>
		<polygon class="st2" points="-200.4,0.3 -205.5,5.4 -200.4,10.5 -195.3,5.4 		"/>
		<polygon class="st2" points="-189.9,0.3 -195,5.4 -189.9,10.5 -184.7,5.4 		"/>
		<polygon class="st2" points="-179.4,0.3 -184.5,5.4 -179.4,10.5 -174.2,5.4 		"/>
		<polygon class="st2" points="-168.9,0.3 -174,5.4 -168.9,10.5 -163.7,5.4 		"/>
		<polygon class="st2" points="-158.4,0.3 -163.5,5.4 -158.4,10.5 -153.2,5.4 		"/>
		<polygon class="st2" points="-147.9,0.3 -153,5.4 -147.9,10.5 -142.7,5.4 		"/>
		<polygon class="st2" points="-137.4,0.3 -142.5,5.4 -137.4,10.5 -132.2,5.4 		"/>
		<polygon class="st2" points="-126.9,0.3 -132,5.4 -126.9,10.5 -121.7,5.4 		"/>
		<polygon class="st2" points="-116.4,0.3 -121.5,5.4 -116.4,10.5 -111.2,5.4 		"/>
		<polygon class="st2" points="-105.9,0.3 -111,5.4 -105.9,10.5 -100.7,5.4 		"/>
		<polygon class="st2" points="-95.4,0.3 -100.5,5.4 -95.4,10.5 -90.2,5.4 		"/>
		<polygon class="st2" points="-84.9,0.3 -90,5.4 -84.9,10.5 -79.7,5.4 		"/>
		<polygon class="st2" points="-74.8,0.2 -79.9,5.4 -74.8,10.5 -69.6,5.4 		"/>
		<polygon class="st2" points="-64.3,0.3 -69.4,5.4 -64.3,10.5 -59.2,5.4 		"/>
		<polygon class="st2" points="-53.9,0.2 -59,5.4 -53.9,10.5 -48.7,5.4 		"/>
		<polygon class="st2" points="-43.4,0.3 -48.5,5.4 -43.4,10.5 -38.2,5.4 		"/>
		<polygon class="st2" points="-32.9,0.3 -38.1,5.4 -32.9,10.5 -27.8,5.4 		"/>
		<polygon class="st2" points="-22.5,0.2 -27.6,5.4 -22.5,10.5 -17.3,5.4 		"/>
		<polygon class="st2" points="-12,0.3 -17.1,5.4 -12,10.5 -6.8,5.4 		"/>
		<polygon class="st2" points="-1.5,0.2 -6.7,5.4 -1.5,10.5 3.6,5.4 		"/>
		<polygon class="st2" points="9,0.3 3.8,5.4 9,10.5 14.1,5.4 		"/>
		<polygon class="st2" points="19.4,0.3 14.3,5.4 19.4,10.5 24.6,5.4 		"/>
		<polygon class="st2" points="29.9,0.2 24.7,5.4 29.9,10.5 35,5.4 		"/>
		<polygon class="st2" points="40.4,0.3 35.2,5.4 40.4,10.5 45.5,5.4 		"/>
		<polygon class="st2" points="50.8,0.2 45.7,5.4 50.8,10.5 56,5.4 		"/>
		<polygon class="st2" points="61.3,0.3 56.2,5.4 61.3,10.5 66.5,5.4 		"/>
		<polygon class="st2" points="71.8,0.2 66.6,5.4 71.8,10.5 76.9,5.4 		"/>
		<polygon class="st2" points="82.3,0.3 77.1,5.4 82.3,10.6 87.4,5.4 		"/>
		<polygon class="st2" points="92.7,0.3 87.6,5.4 92.7,10.5 97.9,5.4 		"/>
		<polygon class="st2" points="103.2,0.2 98,5.4 103.2,10.5 108.3,5.4 		"/>
		<polygon class="st2" points="113.7,0.3 108.5,5.4 113.7,10.5 118.8,5.4 		"/>
		<polygon class="st2" points="124.1,0.2 119,5.4 124.1,10.5 129.3,5.4 		"/>
		<polygon class="st2" points="134.6,0.3 129.5,5.4 134.6,10.5 139.7,5.4 		"/>
		<polygon class="st2" points="145,0.3 139.9,5.4 145,10.5 150.2,5.4 		"/>
		<polygon class="st2" points="155.5,0.2 150.3,5.4 155.5,10.5 160.6,5.4 		"/>
		<polygon class="st2" points="166,0.3 160.9,5.4 166,10.5 171.2,5.4 		"/>
		<polygon class="st2" points="176.5,0.2 171.3,5.4 176.5,10.5 181.6,5.4 		"/>
		<polygon class="st2" points="186.9,0.3 181.8,5.4 186.9,10.5 192.1,5.4 		"/>
		<polygon class="st2" points="197.4,0.3 192.2,5.4 197.4,10.5 202.5,5.4 		"/>
		<polygon class="st2" points="207.9,0.3 202.8,5.4 207.9,10.6 213.1,5.4 		"/>
		<polygon class="st2" points="218.4,0.3 213.2,5.4 218.4,10.5 223.5,5.4 		"/>
		<polygon class="st2" points="228.8,0.2 223.7,5.4 228.8,10.5 233.9,5.4 		"/>
		<polygon class="st2" points="239.3,0.3 234.1,5.4 239.3,10.5 244.4,5.4 		"/>
		<polygon class="st2" points="249.7,0.2 244.6,5.4 249.7,10.5 254.9,5.4 		"/>
		<polygon class="st2" points="260.2,0.3 255.1,5.4 260.2,10.5 265.4,5.4 		"/>
		<polygon class="st2" points="270.7,0.3 265.5,5.4 270.7,10.5 275.8,5.4 		"/>
		<polygon class="st2" points="281.1,0.2 276,5.4 281.1,10.5 286.3,5.4 		"/>
		<polygon class="st2" points="291.6,0.3 286.5,5.4 291.6,10.5 296.8,5.4 		"/>
		<polygon class="st2" points="302.1,0.2 296.9,5.4 302.1,10.5 307.2,5.4 		"/>
		<polygon class="st2" points="312.6,0.3 307.4,5.4 312.6,10.5 317.7,5.4 		"/>
		<polygon class="st2" points="323,0.3 317.9,5.4 323,10.5 328.2,5.4 		"/>
		<polygon class="st2" points="333.5,0.2 328.3,5.4 333.5,10.5 338.6,5.4 		"/>
		<polygon class="st2" points="344,0.3 338.8,5.4 344,10.5 349.1,5.4 		"/>
		<polygon class="st2" points="354,0.2 348.9,5.4 354,10.5 359.2,5.4 		"/>
		<polygon class="st2" points="364.6,0.2 359.4,5.4 364.6,10.5 369.7,5.4 		"/>
		<polygon class="st2" points="375.1,0.2 369.9,5.4 375.1,10.5 380.2,5.4 		"/>
		<polygon class="st2" points="385.6,0.2 380.4,5.4 385.6,10.5 390.7,5.4 		"/>
		<polygon class="st2" points="396.1,0.2 390.9,5.4 396.1,10.5 401.2,5.4 		"/>
		<polygon class="st2" points="406.5,0.2 401.4,5.4 406.5,10.5 411.7,5.4 		"/>
		<polygon class="st2" points="417.1,0.2 411.9,5.4 417.1,10.5 422.2,5.4 		"/>
		<polygon class="st2" points="427.5,0.2 422.4,5.4 427.5,10.5 432.7,5.4 		"/>
		<polygon class="st2" points="438.1,0.2 432.9,5.4 438.1,10.5 443.2,5.4 		"/>
		<polygon class="st2" points="448.6,0.2 443.4,5.4 448.6,10.5 453.7,5.4 		"/>
		<polygon class="st2" points="459,0.2 453.9,5.4 459,10.5 464.2,5.4 		"/>
		<polygon class="st2" points="469.6,0.2 464.4,5.4 469.6,10.5 474.7,5.4 		"/>
		<polygon class="st2" points="480.1,10.5 475,5.4 480.1,0.3 		"/>
	</g>
</g>
</svg>
