<svg xmlns="http://www.w3.org/2000/svg" xmlns:xlink="http://www.w3.org/1999/xlink" width="437" height="14" viewBox="0 0 437 14"><defs><clipPath id="clip-path"><rect id="Rectangle_3294" data-name="Rectangle 3294" width="437" height="14" transform="translate(-5797 -20725)" fill="#fff" stroke="#707070" stroke-width="1"></rect></clipPath></defs><g id="Mask_Group_17" data-name="Mask Group 17" transform="translate(5797 20725)" clip-path="url(#clip-path)"><g id="Group_4341" data-name="Group 4341" transform="translate(-6111.479 -20546.016) rotate(-90)" style="isolation: isolate"><rect id="Rectangle_3042" data-name="Rectangle 3042" width="9.681" height="9.681" transform="translate(165.154 4.846) rotate(-45)"></rect><rect id="Rectangle_3043" data-name="Rectangle 3043" width="9.681" height="9.681" transform="translate(165.154 18.846) rotate(-45)"></rect><rect id="Rectangle_3044" data-name="Rectangle 3044" width="9.681" height="9.681" transform="translate(165.154 32.846) rotate(-45)"></rect><rect id="Rectangle_3045" data-name="Rectangle 3045" width="9.681" height="9.681" transform="translate(165.154 46.846) rotate(-45)"></rect><rect id="Rectangle_3046" data-name="Rectangle 3046" width="9.681" height="9.681" transform="translate(165.154 60.846) rotate(-45)"></rect><rect id="Rectangle_3047" data-name="Rectangle 3047" width="9.681" height="9.681" transform="translate(165.154 74.846) rotate(-45)"></rect><rect id="Rectangle_3048" data-name="Rectangle 3048" width="9.681" height="9.681" transform="translate(165.154 88.846) rotate(-45)"></rect><rect id="Rectangle_3049" data-name="Rectangle 3049" width="9.681" height="9.681" transform="translate(165.154 102.846) rotate(-45)"></rect><rect id="Rectangle_3050" data-name="Rectangle 3050" width="9.681" height="9.681" transform="translate(165.154 116.846) rotate(-45)"></rect><rect id="Rectangle_3051" data-name="Rectangle 3051" width="9.681" height="9.681" transform="translate(165.154 130.846) rotate(-45)"></rect><rect id="Rectangle_3052" data-name="Rectangle 3052" width="9.681" height="9.681" transform="translate(165.154 144.846) rotate(-45)"></rect><rect id="Rectangle_3053" data-name="Rectangle 3053" width="9.681" height="9.681" transform="translate(165.154 158.846) rotate(-45)"></rect><rect id="Rectangle_3054" data-name="Rectangle 3054" width="9.681" height="9.681" transform="translate(165.154 172.846) rotate(-45)"></rect><rect id="Rectangle_3055" data-name="Rectangle 3055" width="9.681" height="9.681" transform="translate(165.154 186.307) rotate(-45)"></rect><rect id="Rectangle_3056" data-name="Rectangle 3056" width="9.681" height="9.681" transform="translate(165.154 200.266) rotate(-45)"></rect><rect id="Rectangle_3057" data-name="Rectangle 3057" width="9.681" height="9.681" transform="translate(165.154 214.224) rotate(-45)"></rect><rect id="Rectangle_3058" data-name="Rectangle 3058" width="9.681" height="9.681" transform="translate(165.154 228.183) rotate(-45)"></rect><rect id="Rectangle_3059" data-name="Rectangle 3059" width="9.681" height="9.681" transform="translate(165.154 242.141) rotate(-45)"></rect><rect id="Rectangle_3060" data-name="Rectangle 3060" width="9.681" height="9.681" transform="translate(165.154 256.1) rotate(-45)"></rect><rect id="Rectangle_3061" data-name="Rectangle 3061" width="9.681" height="9.681" transform="translate(165.154 270.059) rotate(-45)"></rect><rect id="Rectangle_3062" data-name="Rectangle 3062" width="9.681" height="9.681" transform="translate(165.154 284.017) rotate(-45)"></rect><rect id="Rectangle_3063" data-name="Rectangle 3063" width="9.681" height="9.681" transform="translate(165.154 297.976) rotate(-45)"></rect><rect id="Rectangle_3064" data-name="Rectangle 3064" width="9.681" height="9.681" transform="translate(165.154 311.934) rotate(-45)"></rect><rect id="Rectangle_3065" data-name="Rectangle 3065" width="9.681" height="9.681" transform="translate(165.154 325.893) rotate(-45)"></rect><rect id="Rectangle_3066" data-name="Rectangle 3066" width="9.681" height="9.681" transform="translate(165.154 339.852) rotate(-45)"></rect><rect id="Rectangle_3067" data-name="Rectangle 3067" width="9.681" height="9.681" transform="translate(165.154 353.81) rotate(-45)"></rect><rect id="Rectangle_3068" data-name="Rectangle 3068" width="9.681" height="9.681" transform="translate(165.154 367.769) rotate(-45)"></rect><rect id="Rectangle_3069" data-name="Rectangle 3069" width="9.681" height="9.681" transform="translate(165.154 381.727) rotate(-45)"></rect><rect id="Rectangle_3070" data-name="Rectangle 3070" width="9.681" height="9.681" transform="translate(165.154 395.686) rotate(-45)"></rect><rect id="Rectangle_3071" data-name="Rectangle 3071" width="9.681" height="9.681" transform="translate(165.154 409.644) rotate(-45)"></rect><rect id="Rectangle_3072" data-name="Rectangle 3072" width="9.681" height="9.681" transform="translate(165.154 423.603) rotate(-45)"></rect><rect id="Rectangle_3073" data-name="Rectangle 3073" width="9.681" height="9.681" transform="translate(165.154 437.562) rotate(-45)"></rect><rect id="Rectangle_3074" data-name="Rectangle 3074" width="9.681" height="9.681" transform="translate(165.154 451.52) rotate(-45)"></rect><rect id="Rectangle_3075" data-name="Rectangle 3075" width="9.681" height="9.681" transform="translate(165.154 465.479) rotate(-45)"></rect><rect id="Rectangle_3076" data-name="Rectangle 3076" width="9.681" height="9.681" transform="translate(165.154 479.437) rotate(-45)"></rect><rect id="Rectangle_3077" data-name="Rectangle 3077" width="9.681" height="9.681" transform="translate(165.154 493.396) rotate(-45)"></rect><rect id="Rectangle_3078" data-name="Rectangle 3078" width="9.681" height="9.681" transform="translate(165.154 507.354) rotate(-45)"></rect><rect id="Rectangle_3079" data-name="Rectangle 3079" width="9.681" height="9.681" transform="translate(165.154 521.313) rotate(-45)"></rect><rect id="Rectangle_3080" data-name="Rectangle 3080" width="9.681" height="9.681" transform="translate(165.154 535.272) rotate(-45)"></rect><rect id="Rectangle_3081" data-name="Rectangle 3081" width="9.681" height="9.681" transform="translate(165.154 549.23) rotate(-45)"></rect><rect id="Rectangle_3082" data-name="Rectangle 3082" width="9.681" height="9.681" transform="translate(165.154 563.189) rotate(-45)"></rect><rect id="Rectangle_3083" data-name="Rectangle 3083" width="9.681" height="9.681" transform="translate(165.154 577.147) rotate(-45)"></rect><rect id="Rectangle_3084" data-name="Rectangle 3084" width="9.681" height="9.681" transform="translate(165.154 591.106) rotate(-45)"></rect><rect id="Rectangle_3085" data-name="Rectangle 3085" width="9.681" height="9.681" transform="translate(165.154 605.064) rotate(-45)"></rect><rect id="Rectangle_3086" data-name="Rectangle 3086" width="9.681" height="9.681" transform="translate(165.154 619.023) rotate(-45)"></rect><rect id="Rectangle_3087" data-name="Rectangle 3087" width="9.681" height="9.681" transform="translate(165.154 632.982) rotate(-45)"></rect><rect id="Rectangle_3088" data-name="Rectangle 3088" width="9.681" height="9.681" transform="translate(165.154 646.94) rotate(-45)"></rect><rect id="Rectangle_3089" data-name="Rectangle 3089" width="9.681" height="9.681" transform="translate(165.154 660.899) rotate(-45)"></rect><rect id="Rectangle_3090" data-name="Rectangle 3090" width="9.681" height="9.681" transform="translate(165.154 674.857) rotate(-45)"></rect><rect id="Rectangle_3091" data-name="Rectangle 3091" width="9.681" height="9.681" transform="translate(165.154 688.816) rotate(-45)"></rect><rect id="Rectangle_3092" data-name="Rectangle 3092" width="9.681" height="9.681" transform="translate(165.154 702.774) rotate(-45)"></rect><rect id="Rectangle_3093" data-name="Rectangle 3093" width="9.681" height="9.681" transform="translate(165.154 716.733) rotate(-45)"></rect><rect id="Rectangle_3094" data-name="Rectangle 3094" width="9.681" height="9.681" transform="translate(165.154 730.692) rotate(-45)"></rect><rect id="Rectangle_3095" data-name="Rectangle 3095" width="9.681" height="9.681" transform="translate(165.154 744.65) rotate(-45)"></rect><rect id="Rectangle_3096" data-name="Rectangle 3096" width="9.681" height="9.681" transform="translate(165.154 758.112) rotate(-45)"></rect><rect id="Rectangle_3097" data-name="Rectangle 3097" width="9.681" height="9.681" transform="translate(165.154 772.112) rotate(-45)"></rect><rect id="Rectangle_3098" data-name="Rectangle 3098" width="9.681" height="9.681" transform="translate(165.154 786.112) rotate(-45)"></rect><rect id="Rectangle_3099" data-name="Rectangle 3099" width="9.681" height="9.681" transform="translate(165.154 800.112) rotate(-45)"></rect><rect id="Rectangle_3100" data-name="Rectangle 3100" width="9.681" height="9.681" transform="translate(165.154 814.112) rotate(-45)"></rect><rect id="Rectangle_3101" data-name="Rectangle 3101" width="9.681" height="9.681" transform="translate(165.154 828.112) rotate(-45)"></rect><rect id="Rectangle_3102" data-name="Rectangle 3102" width="9.681" height="9.681" transform="translate(165.154 842.112) rotate(-45)"></rect><rect id="Rectangle_3103" data-name="Rectangle 3103" width="9.681" height="9.681" transform="translate(165.154 856.112) rotate(-45)"></rect><rect id="Rectangle_3104" data-name="Rectangle 3104" width="9.681" height="9.681" transform="translate(165.154 870.112) rotate(-45)"></rect><rect id="Rectangle_3105" data-name="Rectangle 3105" width="9.681" height="9.681" transform="translate(165.154 884.112) rotate(-45)"></rect><rect id="Rectangle_3106" data-name="Rectangle 3106" width="9.681" height="9.681" transform="translate(165.154 898.112) rotate(-45)"></rect><rect id="Rectangle_3107" data-name="Rectangle 3107" width="9.681" height="9.681" transform="translate(165.154 912.112) rotate(-45)"></rect><path id="Path_2214" data-name="Path 2214" d="M0,0H9.681V9.681Z" transform="translate(165.154 926.112) rotate(-45)"></path></g></g></svg>