<svg xmlns="http://www.w3.org/2000/svg" xmlns:xlink="http://www.w3.org/1999/xlink" id="Layer_1" x="0px" y="0px" viewBox="0 0 419.8 10.5" style="enable-background:new 0 0 419.8 10.5;" xml:space="preserve"><style type="text/css">	.st0{clip-path:url(#SVGID_00000011716095471068132780000006331652465508017847_);}	.st1{fill:#AF0061;}	.st2{fill:none;}</style><g>	<g>		<defs>			<rect id="SVGID_1_" x="-526.5" y="-20608.5" width="13.7" height="556.6"></rect>		</defs>		<clipPath id="SVGID_00000165953458214684215990000008170598477171168133_">			<use xlink:href="#SVGID_1_" style="overflow:visible;"></use>		</clipPath>					<g id="Repeat_Grid_14" transform="translate(-444.361 -20606.846) rotate(90)" style="clip-path:url(#SVGID_00000165953458214684215990000008170598477171168133_);">			<g transform="translate(-653.154 -486.155)">									<rect id="Rectangle_3035" x="21260.2" y="-444.5" transform="matrix(0.7071 0.7071 -0.7071 0.7071 5917.4556 -15165.3643)" class="st1" width="9.7" height="9.7"></rect>			</g>			<g transform="translate(-653.154 -472.155)">									<rect id="Rectangle_3035-2" x="21260.2" y="-444.5" transform="matrix(0.7071 0.7071 -0.7071 0.7071 5917.4556 -15165.3643)" class="st1" width="9.7" height="9.7"></rect>			</g>			<g transform="translate(-653.154 -458.155)">									<rect id="Rectangle_3035-3" x="21260.2" y="-444.5" transform="matrix(0.7071 0.7071 -0.7071 0.7071 5917.4556 -15165.3643)" class="st1" width="9.7" height="9.7"></rect>			</g>			<g transform="translate(-653.154 -444.155)">									<rect id="Rectangle_3035-4" x="21260.2" y="-444.5" transform="matrix(0.7071 0.7071 -0.7071 0.7071 5917.4556 -15165.3643)" class="st1" width="9.7" height="9.7"></rect>			</g>			<g transform="translate(-653.154 -430.155)">									<rect id="Rectangle_3035-5" x="21260.2" y="-444.5" transform="matrix(0.7071 0.7071 -0.7071 0.7071 5917.4556 -15165.3643)" class="st1" width="9.7" height="9.7"></rect>			</g>			<g transform="translate(-653.154 -416.155)">									<rect id="Rectangle_3035-6" x="21260.2" y="-444.5" transform="matrix(0.7071 0.7071 -0.7071 0.7071 5917.4556 -15165.3643)" class="st1" width="9.7" height="9.7"></rect>			</g>			<g transform="translate(-653.154 -402.155)">									<rect id="Rectangle_3035-7" x="21260.2" y="-444.5" transform="matrix(0.7071 0.7071 -0.7071 0.7071 5917.4556 -15165.3643)" class="st1" width="9.7" height="9.7"></rect>			</g>			<g transform="translate(-653.154 -388.155)">									<rect id="Rectangle_3035-8" x="21260.2" y="-444.5" transform="matrix(0.7071 0.7071 -0.7071 0.7071 5917.4556 -15165.3643)" class="st1" width="9.7" height="9.7"></rect>			</g>			<g transform="translate(-653.154 -374.155)">									<rect id="Rectangle_3035-9" x="21260.2" y="-444.5" transform="matrix(0.7071 0.7071 -0.7071 0.7071 5917.4556 -15165.3643)" class="st1" width="9.7" height="9.7"></rect>			</g>			<g transform="translate(-653.154 -360.155)">									<rect id="Rectangle_3035-10" x="21260.2" y="-444.5" transform="matrix(0.7071 0.7071 -0.7071 0.7071 5917.4556 -15165.3643)" class="st1" width="9.7" height="9.7"></rect>			</g>			<g transform="translate(-653.154 -346.155)">									<rect id="Rectangle_3035-11" x="21260.2" y="-444.5" transform="matrix(0.7071 0.7071 -0.7071 0.7071 5917.4556 -15165.3643)" class="st1" width="9.7" height="9.7"></rect>			</g>			<g transform="translate(-653.154 -332.155)">									<rect id="Rectangle_3035-12" x="21260.2" y="-444.5" transform="matrix(0.7071 0.7071 -0.7071 0.7071 5917.4556 -15165.3643)" class="st1" width="9.7" height="9.7"></rect>			</g>			<g transform="translate(-653.154 -318.155)">									<rect id="Rectangle_3035-13" x="21260.2" y="-444.5" transform="matrix(0.7071 0.7071 -0.7071 0.7071 5917.4556 -15165.3643)" class="st1" width="9.7" height="9.7"></rect>			</g>			<g transform="translate(-653.154 -304.155)">									<rect id="Rectangle_3035-14" x="21260.2" y="-444.5" transform="matrix(0.7071 0.7071 -0.7071 0.7071 5917.4556 -15165.3643)" class="st1" width="9.7" height="9.7"></rect>			</g>			<g transform="translate(-653.154 -290.155)">									<rect id="Rectangle_3035-15" x="21260.2" y="-444.5" transform="matrix(0.7071 0.7071 -0.7071 0.7071 5917.4556 -15165.3643)" class="st1" width="9.7" height="9.7"></rect>			</g>			<g transform="translate(-653.154 -276.155)">									<rect id="Rectangle_3035-16" x="21260.2" y="-444.5" transform="matrix(0.7071 0.7071 -0.7071 0.7071 5917.4556 -15165.3643)" class="st1" width="9.7" height="9.7"></rect>			</g>			<g transform="translate(-653.154 -262.155)">									<rect id="Rectangle_3035-17" x="21260.2" y="-444.5" transform="matrix(0.7071 0.7071 -0.7071 0.7071 5917.4556 -15165.3643)" class="st1" width="9.7" height="9.7"></rect>			</g>			<g transform="translate(-653.154 -248.155)">									<rect id="Rectangle_3035-18" x="21260.2" y="-444.5" transform="matrix(0.7071 0.7071 -0.7071 0.7071 5917.4556 -15165.3643)" class="st1" width="9.7" height="9.7"></rect>			</g>			<g transform="translate(-653.154 -234.155)">									<rect id="Rectangle_3035-19" x="21260.2" y="-444.5" transform="matrix(0.7071 0.7071 -0.7071 0.7071 5917.4556 -15165.3643)" class="st1" width="9.7" height="9.7"></rect>			</g>			<g transform="translate(-653.154 -220.155)">									<rect id="Rectangle_3035-20" x="21260.2" y="-444.5" transform="matrix(0.7071 0.7071 -0.7071 0.7071 5917.4556 -15165.3643)" class="st1" width="9.7" height="9.7"></rect>			</g>			<g transform="translate(-653.154 -206.155)">									<rect id="Rectangle_3035-21" x="21260.2" y="-444.5" transform="matrix(0.7071 0.7071 -0.7071 0.7071 5917.4556 -15165.3643)" class="st1" width="9.7" height="9.7"></rect>			</g>			<g transform="translate(-653.154 -192.155)">									<rect id="Rectangle_3035-22" x="21260.2" y="-444.5" transform="matrix(0.7071 0.7071 -0.7071 0.7071 5917.4556 -15165.3643)" class="st1" width="9.7" height="9.7"></rect>			</g>			<g transform="translate(-653.154 -178.155)">									<rect id="Rectangle_3035-23" x="21260.2" y="-444.5" transform="matrix(0.7071 0.7071 -0.7071 0.7071 5917.4556 -15165.3643)" class="st1" width="9.7" height="9.7"></rect>			</g>			<g transform="translate(-653.154 -164.155)">									<rect id="Rectangle_3035-24" x="21260.2" y="-444.5" transform="matrix(0.7071 0.7071 -0.7071 0.7071 5917.4556 -15165.3643)" class="st1" width="9.7" height="9.7"></rect>			</g>			<g transform="translate(-653.154 -150.155)">									<rect id="Rectangle_3035-25" x="21260.2" y="-444.5" transform="matrix(0.7071 0.7071 -0.7071 0.7071 5917.4556 -15165.3643)" class="st1" width="9.7" height="9.7"></rect>			</g>			<g transform="translate(-653.154 -136.155)">									<rect id="Rectangle_3035-26" x="21260.2" y="-444.5" transform="matrix(0.7071 0.7071 -0.7071 0.7071 5917.4556 -15165.3643)" class="st1" width="9.7" height="9.7"></rect>			</g>			<g transform="translate(-653.154 -122.155)">									<rect id="Rectangle_3035-27" x="21260.2" y="-444.5" transform="matrix(0.7071 0.7071 -0.7071 0.7071 5917.4556 -15165.3643)" class="st1" width="9.7" height="9.7"></rect>			</g>			<g transform="translate(-653.154 -108.155)">									<rect id="Rectangle_3035-28" x="21260.2" y="-444.5" transform="matrix(0.7071 0.7071 -0.7071 0.7071 5917.4556 -15165.3643)" class="st1" width="9.7" height="9.7"></rect>			</g>			<g transform="translate(-653.154 -94.155)">									<rect id="Rectangle_3035-29" x="21260.2" y="-444.5" transform="matrix(0.7071 0.7071 -0.7071 0.7071 5917.4556 -15165.3643)" class="st1" width="9.7" height="9.7"></rect>			</g>			<g transform="translate(-653.154 -80.155)">									<rect id="Rectangle_3035-30" x="21260.2" y="-444.5" transform="matrix(0.7071 0.7071 -0.7071 0.7071 5917.4556 -15165.3643)" class="st1" width="9.7" height="9.7"></rect>			</g>			<g transform="translate(-653.154 -66.155)">									<rect id="Rectangle_3035-31" x="21260.2" y="-444.5" transform="matrix(0.7071 0.7071 -0.7071 0.7071 5917.4556 -15165.3643)" class="st1" width="9.7" height="9.7"></rect>			</g>			<g transform="translate(-653.154 -52.155)">									<rect id="Rectangle_3035-32" x="21260.2" y="-444.5" transform="matrix(0.7071 0.7071 -0.7071 0.7071 5917.4556 -15165.3643)" class="st1" width="9.7" height="9.7"></rect>			</g>			<g transform="translate(-653.154 -38.155)">									<rect id="Rectangle_3035-33" x="21260.2" y="-444.5" transform="matrix(0.7071 0.7071 -0.7071 0.7071 5917.4556 -15165.3643)" class="st1" width="9.7" height="9.7"></rect>			</g>			<g transform="translate(-653.154 -24.155)">									<rect id="Rectangle_3035-34" x="21260.2" y="-444.5" transform="matrix(0.7071 0.7071 -0.7071 0.7071 5917.4556 -15165.3643)" class="st1" width="9.7" height="9.7"></rect>			</g>			<g transform="translate(-653.154 -10.155)">									<rect id="Rectangle_3035-35" x="21260.2" y="-444.5" transform="matrix(0.7071 0.7071 -0.7071 0.7071 5917.4556 -15165.3643)" class="st1" width="9.7" height="9.7"></rect>			</g>			<g transform="translate(-653.154 3.845)">									<rect id="Rectangle_3035-36" x="21260.2" y="-444.5" transform="matrix(0.7071 0.7071 -0.7071 0.7071 5917.4556 -15165.3643)" class="st1" width="9.7" height="9.7"></rect>			</g>			<g transform="translate(-653.154 17.845)">									<rect id="Rectangle_3035-37" x="21260.2" y="-444.5" transform="matrix(0.7071 0.7071 -0.7071 0.7071 5917.4556 -15165.3643)" class="st1" width="9.7" height="9.7"></rect>			</g>			<g transform="translate(-653.154 31.845)">									<rect id="Rectangle_3035-38" x="21260.2" y="-444.5" transform="matrix(0.7071 0.7071 -0.7071 0.7071 5917.4556 -15165.3643)" class="st1" width="9.7" height="9.7"></rect>			</g>			<g transform="translate(-653.154 45.845)">									<rect id="Rectangle_3035-39" x="21260.2" y="-444.5" transform="matrix(0.7071 0.7071 -0.7071 0.7071 5917.4556 -15165.3643)" class="st1" width="9.7" height="9.7"></rect>			</g>			<g transform="translate(-653.154 59.845)">									<rect id="Rectangle_3035-40" x="21260.2" y="-444.5" transform="matrix(0.7071 0.7071 -0.7071 0.7071 5917.4556 -15165.3643)" class="st1" width="9.7" height="9.7"></rect>			</g>		</g>	</g></g><g>	<rect x="2.3" y="0.2" class="st2" width="417.4" height="10.3"></rect>	<polygon class="st1" points="414.7,0 409.5,5.2 414.7,10.3 419.8,5.2  "></polygon>	<polygon class="st1" points="404.1,0 399,5.2 404.1,10.3 409.3,5.2  "></polygon>	<polygon class="st1" points="393.6,0 388.5,5.2 393.6,10.3 398.8,5.2  "></polygon>	<polygon class="st1" points="383.2,0 378,5.2 383.2,10.3 388.3,5.2  "></polygon>	<polygon class="st1" points="372.6,0 367.5,5.2 372.6,10.3 377.8,5.2  "></polygon>	<polygon class="st1" points="362.2,0 357,5.2 362.2,10.3 367.3,5.2  "></polygon>	<polygon class="st1" points="351.6,0 346.5,5.2 351.6,10.3 356.8,5.2  "></polygon>	<polygon class="st1" points="341.1,0 336,5.2 341.1,10.3 346.3,5.2  "></polygon>	<polygon class="st1" points="330.7,0 325.5,5.2 330.7,10.3 335.8,5.2  "></polygon>	<polygon class="st1" points="320.1,0 315,5.2 320.1,10.3 325.3,5.2  "></polygon>	<polygon class="st1" points="309.7,0 304.5,5.2 309.7,10.3 314.8,5.2  "></polygon>	<polygon class="st1" points="299.1,0 294,5.2 299.1,10.3 304.3,5.2  "></polygon>	<polygon class="st1" points="288.7,0 283.5,5.2 288.7,10.3 293.8,5.2  "></polygon>	<polygon class="st1" points="278.1,0 273,5.2 278.1,10.3 283.3,5.2  "></polygon>	<polygon class="st1" points="267.6,0 262.5,5.2 267.6,10.3 272.8,5.2  "></polygon>	<polygon class="st1" points="257.2,0 252,5.2 257.2,10.3 262.3,5.2  "></polygon>	<polygon class="st1" points="246.6,0 241.5,5.2 246.6,10.3 251.8,5.2  "></polygon>	<polygon class="st1" points="236.2,0 231,5.2 236.2,10.3 241.3,5.2  "></polygon>	<polygon class="st1" points="225.6,0 220.5,5.2 225.6,10.3 230.8,5.2  "></polygon>	<polygon class="st1" points="215.1,0 210,5.2 215.1,10.3 220.3,5.2  "></polygon>	<polygon class="st1" points="204.7,0 199.5,5.2 204.7,10.3 209.8,5.2  "></polygon>	<polygon class="st1" points="194.1,0 189,5.2 194.1,10.3 199.3,5.2  "></polygon>	<polygon class="st1" points="183.7,0 178.5,5.2 183.7,10.3 188.8,5.2  "></polygon>	<polygon class="st1" points="173.1,0 168,5.2 173.1,10.3 178.3,5.2  "></polygon>	<polygon class="st1" points="162.7,0 157.5,5.2 162.7,10.3 167.8,5.2  "></polygon>	<polygon class="st1" points="152.1,0 147,5.2 152.1,10.3 157.3,5.2  "></polygon>	<polygon class="st1" points="141.6,0 136.5,5.2 141.6,10.3 146.8,5.2  "></polygon>	<polygon class="st1" points="131.2,0 126,5.2 131.2,10.3 136.3,5.2  "></polygon>	<polygon class="st1" points="120.6,0 115.5,5.2 120.6,10.3 125.8,5.2  "></polygon>	<polygon class="st1" points="110.2,0 105,5.2 110.2,10.3 115.3,5.2  "></polygon>	<polygon class="st1" points="99.6,0 94.5,5.2 99.6,10.3 104.8,5.2  "></polygon>	<polygon class="st1" points="89.1,0 84,5.2 89.1,10.3 94.3,5.2  "></polygon>	<polygon class="st1" points="78.7,0 73.5,5.2 78.7,10.3 83.8,5.2  "></polygon>	<polygon class="st1" points="68.1,0 63,5.2 68.1,10.3 73.3,5.2  "></polygon>	<polygon class="st1" points="57.7,0 52.5,5.2 57.7,10.3 62.8,5.2  "></polygon>	<polygon class="st1" points="47.1,0 42,5.2 47.1,10.3 52.3,5.2  "></polygon>	<polygon class="st1" points="36.7,0 31.5,5.2 36.7,10.3 41.8,5.2  "></polygon>	<polygon class="st1" points="26.1,0 21,5.2 26.1,10.3 31.3,5.2  "></polygon>	<polygon class="st1" points="15.6,0 10.5,5.2 15.6,10.3 20.8,5.2  "></polygon>	<polygon class="st1" points="5.2,0 0,5.2 5.2,10.3 10.3,5.2  "></polygon></g></svg>