<svg xmlns="http://www.w3.org/2000/svg" width="78.99" height="13.691" viewBox="0 0 78.99 13.691">
  <g id="Group_4345" data-name="Group 4345" transform="translate(13086.477 15028.846)">
    <path id="Path_2866" data-name="Path 2866" d="M-19.059-2.52a2.336,2.336,0,0,1-.9,1.942,3.9,3.9,0,0,1-2.469.7A5.892,5.892,0,0,1-25-.362V-1.8a7,7,0,0,0,1.349.47,5.719,5.719,0,0,0,1.33.171,2.115,2.115,0,0,0,1.33-.343,1.118,1.118,0,0,0,.428-.92,1.153,1.153,0,0,0-.394-.882,5.925,5.925,0,0,0-1.625-.857,4.3,4.3,0,0,1-1.79-1.174,2.485,2.485,0,0,1-.521-1.587,2.222,2.222,0,0,1,.825-1.828,3.423,3.423,0,0,1,2.215-.667A6.509,6.509,0,0,1-19.2-8.83l-.482,1.238a5.8,5.8,0,0,0-2.209-.521,1.7,1.7,0,0,0-1.117.321,1.053,1.053,0,0,0-.381.847,1.193,1.193,0,0,0,.152.619,1.556,1.556,0,0,0,.5.486,8.482,8.482,0,0,0,1.257.6,6.877,6.877,0,0,1,1.5.793,2.334,2.334,0,0,1,.7.832A2.5,2.5,0,0,1-19.059-2.52Zm6.395-5.592a2.5,2.5,0,0,0-2.057.927,3.961,3.961,0,0,0-.749,2.558,3.988,3.988,0,0,0,.72,2.583,2.545,2.545,0,0,0,2.085.876,5.479,5.479,0,0,0,1.143-.117q.552-.117,1.149-.3v1.3a6.966,6.966,0,0,1-2.476.413,3.957,3.957,0,0,1-3.129-1.235A5.165,5.165,0,0,1-17.069-4.64a5.708,5.708,0,0,1,.53-2.533,3.783,3.783,0,0,1,1.533-1.663,4.637,4.637,0,0,1,2.355-.578,5.844,5.844,0,0,1,2.628.6l-.546,1.263a8.151,8.151,0,0,0-.993-.39A3.579,3.579,0,0,0-12.664-8.112Zm6.458,3.148h1.054a2.406,2.406,0,0,0,1.536-.394A1.428,1.428,0,0,0-3.14-6.525a1.257,1.257,0,0,0-.514-1.13A2.819,2.819,0,0,0-5.2-8h-1Zm0,1.257V0H-7.723V-9.28H-5.1a4.307,4.307,0,0,1,2.66.673,2.416,2.416,0,0,1,.863,2.031,2.539,2.539,0,0,1-1.8,2.469L-.76,0H-2.486L-4.708-3.707ZM9.475-4.653A5.076,5.076,0,0,1,8.342-1.13,4.1,4.1,0,0,1,5.133.127,4.126,4.126,0,0,1,1.906-1.12,5.108,5.108,0,0,1,.779-4.666,5.029,5.029,0,0,1,1.912-8.195,4.175,4.175,0,0,1,5.146-9.426a4.091,4.091,0,0,1,3.2,1.25A5.071,5.071,0,0,1,9.475-4.653Zm-7.084,0a4.161,4.161,0,0,0,.692,2.6,2.443,2.443,0,0,0,2.05.885,2.438,2.438,0,0,0,2.041-.876,4.169,4.169,0,0,0,.689-2.609,4.178,4.178,0,0,0-.682-2.59,2.413,2.413,0,0,0-2.034-.882,2.463,2.463,0,0,0-2.06.882A4.121,4.121,0,0,0,2.391-4.653ZM12.118,0V-9.28h1.517V-1.3h3.929V0Zm7.7,0V-9.28h1.517V-1.3H25.26V0Z" transform="translate(-13047 -15018)" fill="#fff"/>
    <g id="Group_4099" data-name="Group 4099" transform="translate(-13756.285 -17603)">
      <path id="Path_2198" data-name="Path 2198" d="M9.681,0V9.681H0Z" transform="translate(735.108 2581) rotate(-45)" fill="#fff"/>
      <path id="Path_2199" data-name="Path 2199" d="M9.681,9.681V0H0Z" transform="translate(676.655 2587.846) rotate(-135)" fill="#fff"/>
    </g>
  </g>
</svg>
